<mxfile host="app.diagrams.net" modified="2022-01-28T05:06:50.437Z" agent="5.0 (Windows NT 10.0; Win64; x64) AppleWebKit/537.36 (KHTML, like Gecko) Chrome/97.0.4692.99 Safari/537.36" etag="LSfi-cMHQnEQBVOl7B_t" version="16.4.11" type="github">
  <diagram id="8As7zu5LVlnZ0H2C2J7r" name="Page-1">
    <mxGraphModel dx="1037" dy="766" grid="1" gridSize="10" guides="1" tooltips="1" connect="1" arrows="1" fold="1" page="1" pageScale="1" pageWidth="827" pageHeight="1169" math="0" shadow="0">
      <root>
        <mxCell id="0" />
        <mxCell id="1" parent="0" />
        <mxCell id="Huk9ythuZgXh1tu6I32B-1" value="&lt;span style=&quot;font-size: 24px&quot;&gt;Browser&lt;/span&gt;" style="rounded=1;whiteSpace=wrap;html=1;fillColor=#e1d5e7;strokeColor=#9673a6;" parent="1" vertex="1">
          <mxGeometry x="20" y="160" width="120" height="60" as="geometry" />
        </mxCell>
        <mxCell id="Huk9ythuZgXh1tu6I32B-3" value="" style="endArrow=none;dashed=1;html=1;rounded=0;entryX=0.5;entryY=1;entryDx=0;entryDy=0;" parent="1" target="Huk9ythuZgXh1tu6I32B-1" edge="1">
          <mxGeometry width="50" height="50" relative="1" as="geometry">
            <mxPoint x="80" y="920" as="sourcePoint" />
            <mxPoint x="120" y="250" as="targetPoint" />
          </mxGeometry>
        </mxCell>
        <mxCell id="Huk9ythuZgXh1tu6I32B-4" value="&lt;font style=&quot;font-size: 18px&quot;&gt;Server&lt;/font&gt;" style="rounded=1;whiteSpace=wrap;html=1;fillColor=#d5e8d4;strokeColor=#82b366;" parent="1" vertex="1">
          <mxGeometry x="480" y="160" width="120" height="60" as="geometry" />
        </mxCell>
        <mxCell id="Huk9ythuZgXh1tu6I32B-5" value="" style="endArrow=none;dashed=1;html=1;rounded=0;entryX=0.5;entryY=1;entryDx=0;entryDy=0;" parent="1" edge="1">
          <mxGeometry width="50" height="50" relative="1" as="geometry">
            <mxPoint x="540" y="920" as="sourcePoint" />
            <mxPoint x="539.5" y="220" as="targetPoint" />
          </mxGeometry>
        </mxCell>
        <mxCell id="Huk9ythuZgXh1tu6I32B-6" value="" style="shape=flexArrow;endArrow=classic;html=1;rounded=0;fontSize=18;" parent="1" edge="1">
          <mxGeometry width="50" height="50" relative="1" as="geometry">
            <mxPoint x="80" y="280" as="sourcePoint" />
            <mxPoint x="540" y="280" as="targetPoint" />
          </mxGeometry>
        </mxCell>
        <mxCell id="Huk9ythuZgXh1tu6I32B-8" value="1" style="ellipse;whiteSpace=wrap;html=1;fontSize=18;fontStyle=1" parent="1" vertex="1">
          <mxGeometry x="115" y="230" width="40" height="40" as="geometry" />
        </mxCell>
        <mxCell id="Huk9ythuZgXh1tu6I32B-9" value="&lt;span style=&quot;font-size: 16px&quot;&gt;로그인 데이터(&lt;font color=&quot;#c2c22f&quot;&gt;username, password&lt;/font&gt;)를 보냄&lt;/span&gt;" style="text;html=1;align=center;verticalAlign=middle;resizable=0;points=[];autosize=1;strokeColor=none;fillColor=none;fontSize=18;fontStyle=1" parent="1" vertex="1">
          <mxGeometry x="151" y="240" width="340" height="30" as="geometry" />
        </mxCell>
        <mxCell id="Huk9ythuZgXh1tu6I32B-10" value="" style="curved=1;endArrow=classic;html=1;rounded=0;fontSize=18;" parent="1" edge="1">
          <mxGeometry width="50" height="50" relative="1" as="geometry">
            <mxPoint x="540" y="280" as="sourcePoint" />
            <mxPoint x="540" y="370" as="targetPoint" />
            <Array as="points">
              <mxPoint x="670" y="320" />
            </Array>
          </mxGeometry>
        </mxCell>
        <mxCell id="Huk9ythuZgXh1tu6I32B-11" value="&lt;span style=&quot;font-size: 16px&quot;&gt;데이터베이스에 세션을 저장함&lt;/span&gt;" style="text;html=1;align=center;verticalAlign=middle;resizable=0;points=[];autosize=1;strokeColor=none;fillColor=none;fontSize=18;fontStyle=1" parent="1" vertex="1">
          <mxGeometry x="555" y="315" width="230" height="30" as="geometry" />
        </mxCell>
        <mxCell id="Huk9ythuZgXh1tu6I32B-12" value="2" style="ellipse;whiteSpace=wrap;html=1;fontSize=18;fontStyle=1" parent="1" vertex="1">
          <mxGeometry x="482" y="310" width="40" height="40" as="geometry" />
        </mxCell>
        <mxCell id="Huk9ythuZgXh1tu6I32B-13" value="" style="shape=flexArrow;endArrow=classic;html=1;rounded=0;fontSize=18;" parent="1" edge="1">
          <mxGeometry width="50" height="50" relative="1" as="geometry">
            <mxPoint x="535" y="370" as="sourcePoint" />
            <mxPoint x="80" y="370" as="targetPoint" />
          </mxGeometry>
        </mxCell>
        <mxCell id="Huk9ythuZgXh1tu6I32B-14" value="3" style="ellipse;whiteSpace=wrap;html=1;fontSize=18;fontStyle=1" parent="1" vertex="1">
          <mxGeometry x="80" y="385" width="40" height="40" as="geometry" />
        </mxCell>
        <mxCell id="Huk9ythuZgXh1tu6I32B-15" value="&lt;font style=&quot;font-size: 16px&quot;&gt;{token, &lt;font color=&quot;#b266ff&quot; style=&quot;font-size: 16px&quot;&gt;refreshToken&lt;/font&gt;, user info, authorities} 를 반환함&lt;/font&gt;" style="text;html=1;align=center;verticalAlign=middle;resizable=0;points=[];autosize=1;strokeColor=none;fillColor=none;fontSize=18;fontStyle=1" parent="1" vertex="1">
          <mxGeometry x="120" y="390" width="420" height="30" as="geometry" />
        </mxCell>
        <mxCell id="Huk9ythuZgXh1tu6I32B-19" value="&lt;font color=&quot;#000000&quot;&gt;만료된 토큰과 함께&lt;br&gt;&amp;nbsp;자원에 접근하기&lt;/font&gt;" style="text;html=1;align=center;verticalAlign=middle;resizable=0;points=[];autosize=1;strokeColor=default;fillColor=none;fontSize=16;fontColor=#B266FF;fontStyle=1" parent="1" vertex="1">
          <mxGeometry x="10" y="548" width="150" height="40" as="geometry" />
        </mxCell>
        <mxCell id="Huk9ythuZgXh1tu6I32B-20" value="" style="shape=flexArrow;endArrow=classic;html=1;rounded=0;fontSize=16;fontColor=#000000;" parent="1" edge="1">
          <mxGeometry width="50" height="50" relative="1" as="geometry">
            <mxPoint x="80" y="530" as="sourcePoint" />
            <mxPoint x="540" y="530" as="targetPoint" />
          </mxGeometry>
        </mxCell>
        <mxCell id="Huk9ythuZgXh1tu6I32B-21" value="4" style="ellipse;whiteSpace=wrap;html=1;fontSize=18;fontStyle=1" parent="1" vertex="1">
          <mxGeometry x="100" y="480" width="40" height="40" as="geometry" />
        </mxCell>
        <mxCell id="Huk9ythuZgXh1tu6I32B-22" value="&lt;span style=&quot;font-size: 16px&quot;&gt;헤더에다가 &lt;font color=&quot;#009900&quot;&gt;JWT&lt;/font&gt;를 얹어서 데이터를 요청함&lt;/span&gt;" style="text;html=1;align=center;verticalAlign=middle;resizable=0;points=[];autosize=1;strokeColor=none;fillColor=none;fontSize=18;fontStyle=1" parent="1" vertex="1">
          <mxGeometry x="140" y="490" width="320" height="30" as="geometry" />
        </mxCell>
        <mxCell id="Huk9ythuZgXh1tu6I32B-24" value="5" style="ellipse;whiteSpace=wrap;html=1;fontSize=18;fontStyle=1" parent="1" vertex="1">
          <mxGeometry x="500" y="565" width="40" height="40" as="geometry" />
        </mxCell>
        <mxCell id="Huk9ythuZgXh1tu6I32B-25" value="" style="curved=1;endArrow=classic;html=1;rounded=0;fontSize=18;" parent="1" edge="1">
          <mxGeometry width="50" height="50" relative="1" as="geometry">
            <mxPoint x="540" y="530" as="sourcePoint" />
            <mxPoint x="540" y="620" as="targetPoint" />
            <Array as="points">
              <mxPoint x="670" y="570" />
            </Array>
          </mxGeometry>
        </mxCell>
        <mxCell id="Huk9ythuZgXh1tu6I32B-26" value="&lt;span style=&quot;font-size: 16px&quot;&gt;TokenExpiredError 에러가 발생한 &lt;br&gt;&lt;font color=&quot;#009900&quot;&gt;JWT&lt;/font&gt;의 유효성을 확인함.&lt;/span&gt;" style="text;html=1;align=center;verticalAlign=middle;resizable=0;points=[];autosize=1;strokeColor=none;fillColor=none;fontSize=18;fontStyle=1" parent="1" vertex="1">
          <mxGeometry x="540" y="565" width="260" height="50" as="geometry" />
        </mxCell>
        <mxCell id="Huk9ythuZgXh1tu6I32B-28" value="" style="shape=flexArrow;endArrow=classic;html=1;rounded=0;fontSize=16;fontColor=#009900;" parent="1" edge="1">
          <mxGeometry width="50" height="50" relative="1" as="geometry">
            <mxPoint x="540" y="620" as="sourcePoint" />
            <mxPoint x="80" y="620" as="targetPoint" />
          </mxGeometry>
        </mxCell>
        <mxCell id="Huk9ythuZgXh1tu6I32B-29" value="6" style="ellipse;whiteSpace=wrap;html=1;fontSize=18;fontStyle=1" parent="1" vertex="1">
          <mxGeometry x="114" y="620" width="40" height="40" as="geometry" />
        </mxCell>
        <mxCell id="Huk9ythuZgXh1tu6I32B-30" value="&lt;span style=&quot;font-size: 16px&quot;&gt;&lt;font color=&quot;#994c00&quot;&gt;토큰이 만료되었다&lt;/font&gt;는 &lt;font color=&quot;#003300&quot;&gt;메시지&lt;/font&gt;를 반환함&lt;/span&gt;" style="text;html=1;align=center;verticalAlign=middle;resizable=0;points=[];autosize=1;strokeColor=none;fillColor=none;fontSize=18;fontStyle=1" parent="1" vertex="1">
          <mxGeometry x="155" y="625" width="280" height="30" as="geometry" />
        </mxCell>
        <mxCell id="Huk9ythuZgXh1tu6I32B-31" value="&lt;b&gt;&lt;font color=&quot;#000000&quot;&gt;토큰&lt;br&gt;&amp;nbsp;재발급&lt;/font&gt;&lt;/b&gt;" style="text;html=1;align=center;verticalAlign=middle;resizable=0;points=[];autosize=1;strokeColor=default;fillColor=none;fontSize=16;fontColor=#994C00;" parent="1" vertex="1">
          <mxGeometry x="10" y="770" width="70" height="40" as="geometry" />
        </mxCell>
        <mxCell id="Huk9ythuZgXh1tu6I32B-32" value="" style="shape=flexArrow;endArrow=classic;html=1;rounded=0;fontSize=16;fontColor=#000000;" parent="1" edge="1">
          <mxGeometry width="50" height="50" relative="1" as="geometry">
            <mxPoint x="80" y="750" as="sourcePoint" />
            <mxPoint x="540" y="750" as="targetPoint" />
          </mxGeometry>
        </mxCell>
        <mxCell id="Huk9ythuZgXh1tu6I32B-33" value="7" style="ellipse;whiteSpace=wrap;html=1;fontSize=18;fontStyle=1" parent="1" vertex="1">
          <mxGeometry x="111" y="703" width="40" height="40" as="geometry" />
        </mxCell>
        <mxCell id="Huk9ythuZgXh1tu6I32B-34" value="&lt;font style=&quot;font-size: 16px&quot;&gt;토큰 재발급 요청을 &lt;br&gt;POST &lt;font color=&quot;#cccc00&quot;&gt;api/auth/refreshtoken&amp;nbsp;&lt;/font&gt;에다가 보냄&lt;/font&gt;" style="text;html=1;align=center;verticalAlign=middle;resizable=0;points=[];autosize=1;strokeColor=none;fillColor=none;fontSize=18;fontStyle=1" parent="1" vertex="1">
          <mxGeometry x="150" y="695" width="310" height="50" as="geometry" />
        </mxCell>
        <mxCell id="Huk9ythuZgXh1tu6I32B-35" value="" style="curved=1;endArrow=classic;html=1;rounded=0;fontSize=18;" parent="1" edge="1">
          <mxGeometry width="50" height="50" relative="1" as="geometry">
            <mxPoint x="540" y="750" as="sourcePoint" />
            <mxPoint x="540" y="840" as="targetPoint" />
            <Array as="points">
              <mxPoint x="670" y="790" />
            </Array>
          </mxGeometry>
        </mxCell>
        <mxCell id="Huk9ythuZgXh1tu6I32B-36" value="8" style="ellipse;whiteSpace=wrap;html=1;fontSize=18;fontStyle=1" parent="1" vertex="1">
          <mxGeometry x="500" y="780" width="40" height="40" as="geometry" />
        </mxCell>
        <mxCell id="Huk9ythuZgXh1tu6I32B-37" value="&lt;span style=&quot;font-size: 16px&quot;&gt;&lt;font color=&quot;#009900&quot;&gt;재발급된 토큰&lt;/font&gt;의 유효성을 확인함.&lt;/span&gt;" style="text;html=1;align=center;verticalAlign=middle;resizable=0;points=[];autosize=1;strokeColor=none;fillColor=none;fontSize=18;fontStyle=1" parent="1" vertex="1">
          <mxGeometry x="550" y="790" width="260" height="30" as="geometry" />
        </mxCell>
        <mxCell id="Huk9ythuZgXh1tu6I32B-38" value="" style="shape=flexArrow;endArrow=classic;html=1;rounded=0;fontSize=16;fontColor=#009900;" parent="1" edge="1">
          <mxGeometry width="50" height="50" relative="1" as="geometry">
            <mxPoint x="540" y="840" as="sourcePoint" />
            <mxPoint x="80" y="840" as="targetPoint" />
          </mxGeometry>
        </mxCell>
        <mxCell id="Huk9ythuZgXh1tu6I32B-39" value="9" style="ellipse;whiteSpace=wrap;html=1;fontSize=18;fontStyle=1" parent="1" vertex="1">
          <mxGeometry x="120" y="848" width="40" height="40" as="geometry" />
        </mxCell>
        <mxCell id="Huk9ythuZgXh1tu6I32B-40" value="&lt;font style=&quot;font-size: 16px&quot;&gt;{&lt;font color=&quot;#00cc00&quot;&gt;new token&lt;/font&gt;, &lt;font color=&quot;#b266ff&quot; style=&quot;font-size: 16px&quot;&gt;refreshToken&lt;/font&gt;} 을 반환함&lt;/font&gt;" style="text;html=1;align=center;verticalAlign=middle;resizable=0;points=[];autosize=1;strokeColor=none;fillColor=none;fontSize=18;fontStyle=1" parent="1" vertex="1">
          <mxGeometry x="155" y="848" width="290" height="30" as="geometry" />
        </mxCell>
      </root>
    </mxGraphModel>
  </diagram>
</mxfile>
